<svg width="284" height="42" viewBox="0 0 284 42" fill="none" xmlns="http://www.w3.org/2000/svg">
<path fill-rule="evenodd" clip-rule="evenodd" d="M0 21C0 9.40201 8.72065 0 19.478 0H264.522C275.279 0 284 9.40201 284 21C284 32.598 275.279 42 264.522 42H232.85L233.992 37.7693H256.555C255.81 35.8647 254.563 34.0101 253.499 32.8907H268.232C267.989 30.5014 266.225 28.4464 263.564 28.4464C263.508 28.4464 263.463 28.421 263.437 28.3779C263.421 28.3512 263.412 28.3177 263.412 28.2793C263.412 28.1958 263.473 28.1122 263.564 28.1122C266.134 28.1122 267.883 26.3078 268.217 23.8016H243.099C238.401 19.5746 230.966 15.1971 226.694 13.0752C227.043 7.77884 222.999 3.05054 216.294 3.00043C212.918 2.96701 209.786 4.95523 208.828 5.9577C209.226 5.63519 209.659 5.36551 210.115 5.14215C208.543 5.92358 207.753 7.00665 207.295 7.63565L207.284 7.6503C207.247 7.70108 207.212 7.74884 207.179 7.79312L207.122 7.8685C207.08 7.92419 207.04 7.97266 207.004 8.01276C206.35 8.7312 205.848 9.13217 205.179 9.49976C204.799 9.71695 204.13 9.78378 203.431 9.78378C201.044 9.78378 199.113 10.5189 198.048 10.9867C197.638 11.1538 197.638 11.3042 198.048 11.488C200.066 12.4997 201.43 12.6359 202.527 12.7454C203.513 12.8439 204.283 12.9208 205.119 13.5931L205.125 13.5866L205.134 13.5764C206.563 14.6959 207.019 16.6006 207.171 17.4025C207.308 18.2212 208.494 23.6346 208.752 24.6871C211.626 35.1128 219.137 38.8888 220.855 39.7408C221.006 39.8153 221.162 39.89 221.325 39.9642L220.76 42H19.478C8.72065 42 0 32.598 0 21ZM228.468 41.7614L228.403 42H225.181L225.369 41.3169C226.357 41.5398 227.403 41.7001 228.468 41.7614ZM214.9 13C216.18 13 217.218 11.8807 217.218 10.5C217.218 9.11929 216.18 8 214.9 8C213.619 8 212.581 9.11929 212.581 10.5C212.581 11.8807 213.619 13 214.9 13Z" fill="#E40520"/>
<path d="M111.42 26.8239L116.282 17.9091H119.223V31H116.456V22.0767L111.61 31H108.661V17.9091H111.42V26.8239Z" fill="white"/>
<path d="M95.7586 20.4403V17.9091H106.383V20.4403H102.454V31H99.6874V20.4403H95.7586Z" fill="white"/>
<path d="M86.3772 26.8239L91.2388 17.9091H94.1795V31H91.4127V22.0767L86.5669 31H83.6184V17.9091H86.3772V26.8239ZM90.4562 13.4091H92.5985C92.5985 14.4034 92.2638 15.2102 91.5945 15.8295C90.9305 16.4432 90.0293 16.75 88.891 16.75C87.7632 16.75 86.8647 16.4432 86.1954 15.8295C85.5314 15.2102 85.202 14.4034 85.2073 13.4091H87.3337C87.3337 13.8182 87.4497 14.1847 87.6816 14.5085C87.9187 14.8267 88.3219 14.9858 88.891 14.9858C89.4496 14.9858 89.8475 14.8267 90.0847 14.5085C90.3271 14.1903 90.4509 13.8239 90.4562 13.4091Z" fill="white"/>
<path d="M75.3715 31.2557C74.1857 31.2557 73.1581 30.9744 72.2885 30.4119C71.419 29.8494 70.7444 29.0625 70.2648 28.0511C69.7905 27.0398 69.5534 25.858 69.5534 24.5057C69.5534 23.1534 69.7905 21.9688 70.2648 20.9517C70.7444 19.9347 71.419 19.1449 72.2885 18.5824C73.1581 18.0199 74.1857 17.7386 75.3715 17.7386C76.5572 17.7386 77.5849 18.0199 78.4544 18.5824C79.324 19.1449 79.9959 19.9347 80.4702 20.9517C80.9498 21.9688 81.1896 23.1534 81.1896 24.5057C81.1896 25.858 80.9498 27.0398 80.4702 28.0511C79.9959 29.0625 79.324 29.8494 78.4544 30.4119C77.5849 30.9744 76.5572 31.2557 75.3715 31.2557ZM75.3873 28.7841C76.0302 28.7841 76.5678 28.5938 76.9999 28.2131C77.432 27.8267 77.7535 27.3097 77.9643 26.6619C78.1804 26.0142 78.2884 25.2926 78.2884 24.4972C78.2884 23.696 78.1804 22.9716 77.9643 22.3239C77.7535 21.6705 77.432 21.1506 76.9999 20.7642C76.5678 20.3779 76.0302 20.1847 75.3873 20.1847C74.7285 20.1847 74.1805 20.3779 73.743 20.7642C73.3109 21.1506 72.9868 21.6705 72.7707 22.3239C72.5599 22.9716 72.4545 23.696 72.4545 24.4972C72.4545 25.2926 72.5599 26.0142 72.7707 26.6619C72.9868 27.3097 73.3109 27.8267 73.743 28.2131C74.1805 28.5938 74.7285 28.7841 75.3873 28.7841Z" fill="white"/>
<path d="M55.5715 31V13.5454H61.769C62.939 13.5454 63.9113 13.7443 64.686 14.142C65.4659 14.5341 66.0483 15.071 66.433 15.7528C66.823 16.4346 67.018 17.2074 67.018 18.071C67.018 18.7812 66.8915 19.3892 66.6385 19.8949C66.3856 20.3949 66.0456 20.8011 65.6188 21.1136C65.1919 21.4261 64.715 21.6506 64.188 21.7869V21.9574C64.7624 21.9915 65.3131 22.1818 65.8401 22.5284C66.3724 22.8693 66.8072 23.3523 67.1444 23.9773C67.4817 24.6023 67.6504 25.3579 67.6504 26.2443C67.6504 27.1477 67.4475 27.9602 67.0417 28.6818C66.6359 29.3977 66.0246 29.9631 65.2077 30.3778C64.3909 30.7926 63.3632 31 62.1248 31H55.5715ZM58.5043 28.3579H61.6584C62.7229 28.3579 63.4897 28.1392 63.9587 27.7017C64.433 27.2585 64.6702 26.6903 64.6702 25.9971C64.6702 25.4801 64.5516 25.0142 64.3144 24.5994C64.0773 24.179 63.74 23.8494 63.3026 23.6108C62.8652 23.3665 62.3435 23.2443 61.7374 23.2443H58.5043V28.3579ZM58.5043 20.9687H61.4054C61.9113 20.9687 62.3672 20.8693 62.773 20.6704C63.1788 20.4659 63.4976 20.179 63.7295 19.8096C63.9666 19.4346 64.0852 18.9915 64.0852 18.4801C64.0852 17.804 63.8639 17.2471 63.4212 16.8096C62.9838 16.3721 62.3329 16.1534 61.4686 16.1534H58.5043V20.9687Z" fill="white"/>
</svg>
